<svg width="128" height="128" viewBox="0 0 128 128" fill="none" xmlns="http://www.w3.org/2000/svg">
<path fill-rule="evenodd" clip-rule="evenodd" d="M64 99H17.5319C12.2676 99 8 96.0852 8 91.0968V36.9032C8 31.9148 12.2676 29 17.5319 29H111.66C116.924 29 120 33.0439 120 38.0323V89.9677C120 94.9561 115.732 99 110.468 99H83.0638" fill="#E1F1FF"/>
<path fill-rule="evenodd" clip-rule="evenodd" d="M99 99H113C116.314 99 119 96.3137 119 93V35C119 31.6863 116.314 29 113 29H99C102.314 29 105 31.6863 105 35V93C105 96.3137 102.314 99 99 99Z" fill="#CBE4FA"/>
<path fill-rule="evenodd" clip-rule="evenodd" d="M19 86C19 85.4477 19.4477 85 20 85H36C36.5523 85 37 85.4477 37 86C37 86.5523 36.5523 87 36 87H20C19.4477 87 19 86.5523 19 86Z" fill="#00314D"/>
<path fill-rule="evenodd" clip-rule="evenodd" d="M43 86C43 85.4477 43.4477 85 44 85H60C60.5523 85 61 85.4477 61 86C61 86.5523 60.5523 87 60 87H44C43.4477 87 43 86.5523 43 86Z" fill="#00314D"/>
<path fill-rule="evenodd" clip-rule="evenodd" d="M67 86C67 85.4477 67.4477 85 68 85H84C84.5523 85 85 85.4477 85 86C85 86.5523 84.5523 87 84 87H68C67.4477 87 67 86.5523 67 86Z" fill="#00314D"/>
<path fill-rule="evenodd" clip-rule="evenodd" d="M91 86C91 85.4477 91.4477 85 92 85H108C108.552 85 109 85.4477 109 86C109 86.5523 108.552 87 108 87H92C91.4477 87 91 86.5523 91 86Z" fill="#00314D"/>
<path fill-rule="evenodd" clip-rule="evenodd" d="M16 30C12.134 30 9 33.134 9 37V91C9 94.866 12.134 98 16 98H83.0638C83.6161 98 84.0638 98.4477 84.0638 99C84.0638 99.5523 83.6161 100 83.0638 100H16C11.0295 100 7 95.9706 7 91V37C7 32.0294 11.0294 28 16 28H112C116.971 28 121 32.0294 121 37V91C121 95.9706 116.971 100 112 100H98.5532C98.0009 100 97.5532 99.5523 97.5532 99C97.5532 98.4477 98.0009 98 98.5532 98H112C115.866 98 119 94.866 119 91V37C119 33.134 115.866 30 112 30H16Z" fill="#00314D"/>
<path d="M89.6881 43.5881H98.2305V58.9373H89.6881V43.5881Z" fill="#FF5F00"/>
<path d="M90.2305 51.2627C90.2305 48.1441 91.6949 45.378 93.9458 43.5881C92.2915 42.2864 90.2034 41.5 87.9254 41.5C82.5288 41.5 78.1627 45.8661 78.1627 51.2627C78.1627 56.6593 82.5288 61.0254 87.9254 61.0254C90.2034 61.0254 92.2915 60.239 93.9458 58.9373C91.6949 57.1475 90.2305 54.3814 90.2305 51.2627Z" fill="#EB001B"/>
<path d="M109.756 51.2627C109.756 56.6593 105.39 61.0254 99.9932 61.0254C97.7153 61.0254 95.6271 60.239 93.9729 58.9373C96.2509 57.1475 97.6881 54.3814 97.6881 51.2627C97.6881 48.1441 96.2237 45.378 93.9729 43.5881C95.6271 42.2864 97.7153 41.5 99.9932 41.5C105.39 41.5 109.756 45.8661 109.756 51.2627Z" fill="#F79E1B"/>
<path fill-rule="evenodd" clip-rule="evenodd" d="M22 44C20.8954 44 20 44.8954 20 46V48H38V46C38 44.8954 37.1046 44 36 44H22Z" fill="#00314D"/>
<path fill-rule="evenodd" clip-rule="evenodd" d="M22 59C20.8954 59 20 58.1046 20 57V55H38V57C38 58.1046 37.1046 59 36 59H22Z" fill="#00314D"/>
<path fill-rule="evenodd" clip-rule="evenodd" d="M20 50C20 49.4477 20.4477 49 21 49H25C25.5523 49 26 49.4477 26 50V53C26 53.5523 25.5523 54 25 54H21C20.4477 54 20 53.5523 20 53V50Z" fill="#00314D"/>
<rect x="27" y="49" width="4" height="5" rx="1" fill="#00314D"/>
<path fill-rule="evenodd" clip-rule="evenodd" d="M32 50C32 49.4477 32.4477 49 33 49H37C37.5523 49 38 49.4477 38 50V53C38 53.5523 37.5523 54 37 54H33C32.4477 54 32 53.5523 32 53V50Z" fill="#00314D"/>
</svg>
