<svg width="32" height="32" viewBox="0 0 32 32" fill="none" xmlns="http://www.w3.org/2000/svg">
<path fill-rule="evenodd" clip-rule="evenodd" d="M16 0C7.17737 0 0 7.17737 0 16C0 24.8226 7.17737 32 16 32C24.8218 32 32 24.8226 32 16C32 7.17737 24.8218 0 16 0ZM12.6765 16.0051H14.0891V23.1537H17.0599V16.0051H19.0655L19.3252 13.4792H17.0599V11.9947C17.0599 11.4356 17.4304 11.307 17.6901 11.307H19.288V8.85477L17.087 8.84547C14.6449 8.84547 14.0891 10.6743 14.0891 11.845V13.4792H12.6765V16.0051ZM31 16C31 7.71652 24.2844 1 16 1C7.71564 1 1 7.71652 1 16C1 24.2852 7.71564 31 16 31C24.2844 31 31 24.2852 31 16Z" fill="#565656"/>
<path fill-rule="evenodd" clip-rule="evenodd" d="M16 0C7.17737 0 0 7.17737 0 16C0 24.8226 7.17737 32 16 32C24.8218 32 32 24.8226 32 16C32 7.17737 24.8218 0 16 0ZM12.6765 16.0051H14.0891V23.1537H17.0599V16.0051H19.0655L19.3252 13.4792H17.0599V11.9947C17.0599 11.4356 17.4304 11.307 17.6901 11.307H19.288V8.85477L17.087 8.84547C14.6449 8.84547 14.0891 10.6743 14.0891 11.845V13.4792H12.6765V16.0051ZM31 16C31 7.71652 24.2844 1 16 1C7.71564 1 1 7.71652 1 16C1 24.2852 7.71564 31 16 31C24.2844 31 31 24.2852 31 16Z" fill="#565656"/>
</svg>
