<svg width="80" height="80" viewBox="0 0 80 80" fill="none" xmlns="http://www.w3.org/2000/svg">
<g clip-path="url(#clip0_950_2314)">
<path fill-rule="evenodd" clip-rule="evenodd" d="M63.2367 44.8453C63.2367 33.6958 52.1403 24.6563 38.4516 24.6563C36.5466 24.6563 34.6941 24.8376 32.9114 25.1687C30.4723 20.66 26.2484 16.9089 19.8352 18.378L22.4354 29.4443C19.3098 31.6027 16.8527 34.3809 15.3442 37.5464H11.9638C9.80253 37.5464 8.05078 39.2769 8.05078 41.4105V46.6341C8.05078 48.7684 9.80253 50.4982 11.9638 50.4982H14.6591C16.0927 54.5059 19.0061 57.9983 22.891 60.5547V67.9531C22.891 69.0384 23.7813 69.9175 24.8802 69.9175H32.3846C33.4828 69.9175 34.3731 69.0384 34.3731 67.9531V64.7571C35.7009 64.9369 37.0619 65.0342 38.4516 65.0342C40.0213 65.0342 41.555 64.9099 43.0426 64.6832V67.9531C43.0426 69.0384 43.9336 69.9175 45.0318 69.9175H52.5369C53.6351 69.9175 54.5254 69.0384 54.5254 67.9531V60.2064C59.8541 56.5037 63.2367 50.9978 63.2367 44.8453Z" fill="#E1F1FF"/>
<path fill-rule="evenodd" clip-rule="evenodd" d="M8.1582 39.9353C9.6631 39.9353 10.883 40.9985 10.883 42.3098C10.883 43.6217 9.6631 44.6842 8.1582 44.6842" fill="#CBE4FA"/>
<path fill-rule="evenodd" clip-rule="evenodd" d="M27.7174 25.8532C29.5001 25.5213 31.3527 25.3408 33.2584 25.3408C33.3354 25.3408 33.4124 25.3451 33.4894 25.3451C31.0115 21.068 26.4659 16.9431 20.2959 18.3567L20.3535 18.6019C23.4705 19.7021 26.16 22.9742 27.7174 25.8532Z" fill="#CBE4FA"/>
<path fill-rule="evenodd" clip-rule="evenodd" d="M31.9262 64.6959C30.5364 64.6959 29.1755 64.5985 27.8476 64.4187V67.6147C27.8476 68.7 26.9574 69.5791 25.8584 69.5791H31.9161C33.0144 69.5791 33.9054 68.7 33.9054 67.6147V64.6255C33.2519 64.6689 32.5934 64.6959 31.9262 64.6959Z" fill="#CBE4FA"/>
<path fill-rule="evenodd" clip-rule="evenodd" d="M35.1504 24.3988C47.4062 25.6191 56.9004 34.1191 56.9004 44.4321C56.9004 50.584 53.5179 56.0905 48.1892 59.7933V67.5399C48.1892 68.6245 47.2989 69.5043 46.2007 69.5043H52.2577C53.3566 69.5043 54.2469 68.6245 54.2469 67.5399V59.7933C59.5749 56.0905 62.9582 50.584 62.9582 44.4321C62.9582 33.2819 51.8618 24.2432 38.1731 24.2432C37.149 24.2432 36.1414 24.2993 35.1504 24.3988Z" fill="#CBE4FA"/>
<path fill-rule="evenodd" clip-rule="evenodd" d="M33.2341 24.2065C32.0055 22.0433 30.348 20.0462 28.2 18.7334C25.904 17.3301 23.0844 16.7326 19.728 17.5037C19.3921 17.5809 19.183 17.9122 19.2608 18.244L21.7582 28.9045C18.8406 30.9996 16.5083 33.6423 15.0014 36.6489H12.0248C9.52383 36.6489 7.5 38.6569 7.5 41.1287V46.3504C7.5 48.8229 9.52391 50.8302 12.0248 50.8302H14.2742C15.7645 54.708 18.5899 58.0793 22.2902 60.5929V67.6613C22.2902 69.0853 23.4556 70.2422 24.8978 70.2422H32.3768C33.8185 70.2422 34.9836 69.0851 34.9836 67.6613V65.1662C36.1081 65.293 37.2556 65.3608 38.4234 65.3608C39.7689 65.3608 41.0878 65.2707 42.374 65.1043V67.6613C42.374 69.0854 43.5401 70.2422 44.9815 70.2422H52.4613C53.9029 70.2422 55.0681 69.0851 55.0681 67.6613V60.2348C60.3611 56.442 63.75 50.8449 63.75 44.5622C63.75 32.9717 52.2952 23.7637 38.4234 23.7637C36.6437 23.7637 34.9093 23.9196 33.2341 24.2065ZM20.6227 18.5808C23.3818 18.0857 25.6646 18.6355 27.5421 19.783C29.5739 21.0248 31.1675 22.9904 32.3502 25.1832C32.4787 25.4215 32.7491 25.5496 33.0178 25.4996C34.7577 25.1754 36.5652 24.9981 38.4234 24.9981C51.8369 24.9981 62.5 33.8621 62.5 44.5622C62.5 50.4759 59.2597 55.8052 54.0827 59.4133C53.9168 59.529 53.8181 59.717 53.8181 59.9176V67.6613C53.8181 68.4072 53.2087 69.0078 52.4613 69.0078H44.9815C44.2337 69.0078 43.624 68.4069 43.624 67.6613V64.3926C43.624 64.2124 43.5442 64.0413 43.4057 63.924C43.2672 63.8068 43.0837 63.7551 42.9033 63.7827C41.4508 64.0047 39.9542 64.1264 38.4234 64.1264C37.0681 64.1264 35.7402 64.0312 34.4438 63.8551C34.2649 63.8308 34.0841 63.8841 33.9479 64.0013C33.8118 64.1185 33.7336 64.2882 33.7336 64.4665V67.6613C33.7336 68.4072 33.1243 69.0078 32.3768 69.0078H24.8978C24.1494 69.0078 23.5402 68.4071 23.5402 67.6613V60.2657C23.5402 60.0596 23.436 59.8671 23.2625 59.7526C19.4875 57.261 16.6786 53.872 15.3005 50.008C15.2125 49.761 14.9762 49.5958 14.711 49.5958H12.0248C10.2178 49.5958 8.75 48.1447 8.75 46.3504V41.1287C8.75 39.335 10.2179 37.8832 12.0248 37.8832H15.3939C15.6362 37.8832 15.8567 37.7449 15.9597 37.5282C17.4119 34.4717 19.7843 31.775 22.8201 29.6724C23.0286 29.5279 23.1275 29.273 23.0701 29.028L20.6227 18.5808Z" fill="#00314D"/>
<path fill-rule="evenodd" clip-rule="evenodd" d="M29.7134 37.5731C29.7134 39.5041 28.1279 41.0697 26.1725 41.0697C24.2164 41.0697 22.6309 39.5041 22.6309 37.5731C22.6309 35.6414 24.2164 34.0764 26.1725 34.0764C28.1279 34.0764 29.7134 35.6414 29.7134 37.5731Z" fill="#CBE4FA"/>
<path fill-rule="evenodd" clip-rule="evenodd" d="M27.7926 37.5732C27.7926 38.4566 27.0671 39.173 26.1725 39.173C25.2772 39.173 24.5518 38.4566 24.5518 37.5732C24.5518 36.6891 25.2772 35.9734 26.1725 35.9734C27.0671 35.9734 27.7926 36.6891 27.7926 37.5732Z" fill="#00314D"/>
<path fill-rule="evenodd" clip-rule="evenodd" d="M67.7725 34.0726C68.2276 34.5099 68.5192 35.1324 68.5657 35.9115L68.5657 35.9116C68.6026 36.5329 68.4001 37.0799 68.0685 37.5358C68.6189 37.5806 69.1714 37.544 69.6655 37.4253C70.3359 37.2642 70.8415 36.9673 71.1278 36.582C71.3319 36.3071 71.7231 36.2478 72.0014 36.4494C72.2797 36.651 72.3398 37.0373 72.1356 37.3121C71.6191 38.0074 70.8092 38.4208 69.9611 38.6246C69.1073 38.8299 68.1563 38.8384 67.2705 38.6734C67.1337 38.6479 66.9973 38.6181 66.8621 38.5838C66.4177 38.8408 65.923 39.0351 65.423 39.1642C64.6228 39.3708 63.7572 39.4236 62.9926 39.2615C62.2295 39.0997 61.4928 38.703 61.112 37.9507C60.9577 37.6458 61.0828 37.2751 61.3916 37.1227C61.7004 36.9703 62.0758 37.094 62.2301 37.3989C62.3844 37.7037 62.7181 37.9408 63.255 38.0546C63.7903 38.1681 64.4542 38.1385 65.1069 37.97C65.1673 37.9544 65.2272 37.9377 65.2865 37.92C65.142 37.8272 65.0044 37.7267 64.8753 37.6182C64.2133 37.0621 63.7656 36.2855 63.8 35.3219C63.8491 33.9445 65.1233 33.3143 66.1924 33.3861C66.7503 33.4236 67.3236 33.6412 67.7725 34.0726ZM66.657 37.2267C66.2779 37.0831 65.9461 36.8972 65.6853 36.678C65.2567 36.318 65.0307 35.8834 65.0492 35.3654L65.0492 35.3654C65.0649 34.9263 65.4726 34.575 66.1076 34.6176C66.4017 34.6374 66.686 34.7509 66.9008 34.9573C67.1094 35.1578 67.2877 35.4796 67.3179 35.9839M66.657 37.2267C66.6911 37.1989 66.724 37.1707 66.7558 37.1421C67.1566 36.7814 67.3419 36.3893 67.3179 35.9841" fill="#00314D"/>
<path fill-rule="evenodd" clip-rule="evenodd" d="M39.6325 28.9448C37.5802 28.8215 35.651 28.9217 34.4769 29.1131C34.1363 29.1686 33.8147 28.941 33.7584 28.6047C33.7022 28.2684 33.9327 27.9507 34.2733 27.8952C35.56 27.6855 37.5858 27.5852 39.7084 27.7127C41.8254 27.84 44.1046 28.1974 45.87 28.94C46.1876 29.0736 46.3354 29.4361 46.2001 29.7497C46.0648 30.0633 45.6978 30.2092 45.3802 30.0756C43.8057 29.4134 41.6904 29.0685 39.6325 28.9448Z" fill="#00314D"/>
<path fill-rule="evenodd" clip-rule="evenodd" d="M51.1253 19.7914C50.3463 24.1549 46.1324 27.0679 41.7138 26.2987C37.2959 25.5294 34.3453 21.3689 35.1249 17.0054C35.9039 12.642 40.1171 9.72894 44.5357 10.4982C48.9537 11.2675 51.9042 15.428 51.1253 19.7914Z" fill="white"/>
<path fill-rule="evenodd" clip-rule="evenodd" d="M44.4273 11.1061C40.3486 10.396 36.4596 13.085 35.7406 17.1127L35.7405 17.1128C35.0209 21.1405 37.7444 24.9809 41.8224 25.691C45.9012 26.4011 49.7908 23.712 50.5099 19.6844C51.2289 15.6566 48.5053 11.8162 44.4273 11.1061ZM34.5095 16.8984C35.3485 12.1992 39.8858 9.06206 44.6443 9.89049L44.6444 9.89049C49.4022 10.7189 52.5798 15.1996 51.7409 19.8987C50.902 24.5979 46.3639 27.735 41.6054 26.9066L41.6054 26.9066C36.8475 26.0781 33.6699 21.5976 34.5095 16.8984Z" fill="#00314D"/>
<path fill-rule="evenodd" clip-rule="evenodd" d="M44.4696 13.6038C44.8017 13.6911 44.9981 14.0292 44.9081 14.3589L44.591 15.521C44.501 15.8506 44.1588 16.047 43.8266 15.9597C43.4945 15.8723 43.2981 15.5342 43.3881 15.2045L43.7052 14.0425C43.7952 13.7128 44.1374 13.5164 44.4696 13.6038Z" fill="#00314D"/>
<path fill-rule="evenodd" clip-rule="evenodd" d="M42.5008 20.8574C42.833 20.9448 43.0293 21.2829 42.9393 21.6126L42.6222 22.7746C42.5322 23.1043 42.19 23.3007 41.8579 23.2133C41.5257 23.126 41.3294 22.7879 41.4194 22.4582L41.7365 21.2961C41.8265 20.9665 42.1687 20.7701 42.5008 20.8574Z" fill="#00314D"/>
<path fill-rule="evenodd" clip-rule="evenodd" d="M42.6395 15.9257C42.3753 16.0116 42.2245 16.1629 42.1608 16.396C42.0889 16.6594 42.1891 16.9164 42.5063 17.2153C42.7771 17.4705 43.1026 17.6569 43.3533 17.8006C43.4001 17.8273 43.4443 17.8526 43.485 17.8766L43.4855 17.8769C43.5017 17.8864 43.52 17.8971 43.5402 17.9089C43.7765 18.0468 44.2725 18.3364 44.6838 18.7356C45.1203 19.1592 45.6115 19.857 45.371 20.7378C45.1822 21.4294 44.6803 21.8675 44.0717 22.0653C43.4874 22.2553 42.8121 22.2269 42.1679 22.0575C41.0635 21.767 40.2031 20.9123 40.078 19.8768C40.0371 19.5383 40.2812 19.2294 40.6231 19.1871C40.9651 19.1447 41.2755 19.3848 41.3164 19.7234C41.3697 20.1647 41.781 20.6756 42.494 20.8631C42.9829 20.9916 43.4004 20.9852 43.6887 20.8915C43.9528 20.8056 44.1035 20.6544 44.1672 20.4212C44.2281 20.1981 44.1388 19.9412 43.8085 19.6205C43.5105 19.3313 43.1376 19.1124 42.8951 18.9701C42.8772 18.9596 42.86 18.9495 42.8436 18.9398C42.8189 18.9252 42.7874 18.9074 42.7503 18.8863C42.5099 18.7501 42.0342 18.4804 41.6441 18.1128C41.1898 17.6846 40.7092 16.987 40.957 16.0794C41.1458 15.3878 41.6478 14.9497 42.2564 14.7518C42.8408 14.5618 43.5162 14.5902 44.1604 14.7596C45.2743 15.0525 46.1455 15.9226 46.2547 16.9727C46.2899 17.312 46.0408 17.6168 45.6982 17.6536C45.3556 17.6904 45.0493 17.4452 45.014 17.106C44.9681 16.6643 44.5559 16.1437 43.8343 15.954C43.3456 15.8254 42.928 15.8319 42.6395 15.9257Z" fill="#00314D"/>
</g>
<defs>
<clipPath id="clip0_950_2314">
<rect width="80" height="80" fill="white"/>
</clipPath>
</defs>
</svg>
