<svg width="80" height="80" viewBox="0 0 80 80" fill="none" xmlns="http://www.w3.org/2000/svg">
<g clip-path="url(#clip0_950_2487)">
<path fill-rule="evenodd" clip-rule="evenodd" d="M36.6298 62.2857C30.0589 62.9907 22.2734 62.172 16.9323 56.5404C9.76086 48.9867 6.25 41.7605 6.25 41.7605C6.25 41.7605 16.106 40 19.391 40C28.0315 40 34.5948 41.7605 39.1164 46.3351C42.5791 49.8373 42.8125 57.596 42.8125 59.7079" fill="#E1F1FF"/>
<path fill-rule="evenodd" clip-rule="evenodd" d="M19.3472 40C28.0039 40 34.5795 41.7203 39.1095 46.1903C42.5786 49.6125 42.8125 57.1938 42.8125 59.2575L36.6182 61.7763L36.4147 61.7969L39.2847 60.6302C39.2847 58.5202 39.0494 50.8596 35.6083 47.2259L35.4365 47.0505C30.7288 42.4053 23.8954 40.6175 14.8992 40.6175C14.0153 40.6175 12.6744 40.7369 11.1719 40.914C11.8108 40.8175 12.475 40.72 13.1409 40.6266L13.6415 40.5571C15.892 40.2488 18.0956 40 19.3472 40Z" fill="#CBE4FA"/>
<path fill-rule="evenodd" clip-rule="evenodd" d="M52.0604 58.9844C57.3171 58.9844 65.6631 58.299 69.7028 54.5321C73.1656 51.3054 73.75 43.592 73.75 40.8313C73.75 40.4894 67.6859 40.8313 62.8329 41.8587C57.284 43.0335 52.3187 47.3391 51.5054 51.1066C50.6988 54.8741 52.0604 58.9844 52.0604 58.9844Z" fill="#E1F1FF"/>
<path fill-rule="evenodd" clip-rule="evenodd" d="M51.9472 58.9843L51.665 58.9844C51.665 58.9844 51.4571 58.368 51.25 57.3938C51.5722 58.2232 51.855 58.8015 51.9472 58.9843ZM69.8406 40.8476C70.9401 40.7566 71.8924 40.7085 72.5818 40.7031L72.8278 40.7031C73.4108 40.7081 73.75 40.7507 73.75 40.8309C73.75 43.5915 73.155 51.3052 69.629 54.532C65.7132 58.1181 57.8236 58.9114 52.457 58.9794C57.4291 58.2615 64.7999 56.4965 67.8272 52.3933C69.896 49.5913 69.8552 44.3677 69.4965 40.8767L69.8406 40.8476Z" fill="#CBE4FA"/>
<path fill-rule="evenodd" clip-rule="evenodd" d="M74.1732 40.2535C74.2777 40.3375 74.4531 40.529 74.4531 40.8313C74.4531 42.2486 74.3041 44.9187 73.7122 47.6556C73.1267 50.3627 72.0784 53.2795 70.1823 55.0464C68.0178 57.0647 64.7645 58.2102 61.4744 58.8606C58.1643 59.515 54.7137 59.6875 52.0604 59.6875H51.5527L51.393 59.2055L52.0604 58.9844C51.393 59.2055 51.393 59.2057 51.393 59.2055L51.3924 59.2036L51.3912 59.2001L51.3875 59.1888L51.3747 59.1486C51.3639 59.1142 51.3486 59.0646 51.3296 59.0011C51.2918 58.8739 51.2394 58.6905 51.1796 58.4596C51.0601 57.9981 50.9101 57.3445 50.7861 56.5693C50.5398 55.0287 50.389 52.9626 50.8179 50.9594L50.8181 50.9582C51.2704 48.8629 52.8415 46.7185 54.9436 44.9698C57.0594 43.2098 59.7905 41.7841 62.6873 41.1709C65.1505 40.6494 67.9107 40.3036 70.0548 40.1307C71.1264 40.0443 72.0565 40 72.7266 40C73.0574 40 73.347 40.0106 73.565 40.0372C73.6675 40.0497 73.7954 40.0702 73.9139 40.1119C73.9698 40.1316 74.0723 40.1722 74.1732 40.2535ZM52.5865 58.2789C55.1063 58.2567 58.2254 58.0694 61.2016 57.4811C64.4086 56.8471 67.3481 55.7664 69.2233 54.0179C70.7899 52.5581 71.7654 50.0047 72.3377 47.3583C72.8306 45.0796 73.0028 42.8385 73.0391 41.4104C72.9476 41.4077 72.8435 41.4062 72.7267 41.4062C72.1081 41.4063 71.2189 41.4476 70.1678 41.5324C68.0666 41.7018 65.3683 42.0407 62.9785 42.5466C60.3264 43.1081 57.8004 44.4226 55.843 46.0509C53.8721 47.6904 52.554 49.5823 52.1928 51.2544C51.8153 53.0185 51.9419 54.8911 52.1748 56.3473C52.2904 57.0706 52.4304 57.68 52.541 58.107C52.5568 58.1682 52.572 58.2256 52.5865 58.2789Z" fill="#00314D"/>
<path fill-rule="evenodd" clip-rule="evenodd" d="M6.24992 41.7605C5.61749 42.0678 5.61756 42.068 5.61764 42.0681L5.6186 42.0701L5.62101 42.075L5.62969 42.0927C5.63721 42.1079 5.64816 42.13 5.66257 42.1587C5.69139 42.2162 5.734 42.3002 5.79046 42.4092C5.90338 42.6272 6.07167 42.9448 6.29566 43.3487C6.74359 44.1563 7.41451 45.3091 8.31089 46.699C10.103 49.4776 12.7999 53.2091 16.4223 57.0245C21.9889 62.8936 30.0531 63.6985 36.7047 62.9848C37.0908 62.9434 37.3703 62.5968 37.3288 62.2107C37.2874 61.8246 36.9408 61.5452 36.5547 61.5866C30.0646 62.2829 22.558 61.4504 17.4424 56.0566C13.8933 52.3183 11.2488 48.6596 9.49266 45.9368C8.6149 44.5758 7.95989 43.45 7.52543 42.6666C7.44951 42.5298 7.38034 42.4034 7.3179 42.288C7.50792 42.2553 7.72269 42.2186 7.95856 42.1787C8.93145 42.0141 10.2623 41.7947 11.6949 41.5753C14.5849 41.1328 17.8128 40.7031 19.3909 40.7031C27.9532 40.7031 34.2878 42.4502 38.6163 46.8293C40.1929 48.424 41.0862 51.0614 41.5716 53.6714C42.0516 56.2528 42.1093 58.6724 42.1093 59.7079C42.1093 60.0963 42.4241 60.4111 42.8124 60.4111C43.2007 60.4111 43.5155 60.0963 43.5155 59.7079C43.5155 58.6316 43.4565 56.1158 42.9541 53.4143C42.4571 50.7415 41.5024 47.7484 39.6164 45.8408C34.9017 41.0708 28.1097 39.2969 19.3909 39.2969C17.6839 39.2969 14.3413 39.7475 11.4821 40.1852C10.0401 40.406 8.70168 40.6267 7.72392 40.7922C7.23494 40.8749 6.83592 40.9439 6.55898 40.9922C6.42051 41.0164 6.31254 41.0354 6.23908 41.0484L6.12681 41.0683C6.12671 41.0683 6.12628 41.0684 6.24992 41.7605ZM6.24992 41.7605L6.12681 41.0683C5.90995 41.107 5.72326 41.2452 5.62332 41.4416C5.52338 41.6379 5.52138 41.87 5.61764 42.0681L6.24992 41.7605Z" fill="#00314D"/>
<path fill-rule="evenodd" clip-rule="evenodd" d="M38.448 23.0152C37.538 28.1774 32.615 31.6237 27.4529 30.7136C22.2916 29.8036 18.8445 24.8814 19.7553 19.7192C20.6654 14.557 25.5875 11.1107 30.7497 12.0208C35.911 12.9308 39.3581 17.853 38.448 23.0152Z" fill="#EEF6FB"/>
<path fill-rule="evenodd" clip-rule="evenodd" d="M30.6277 12.7133C25.848 11.8707 21.2906 15.0617 20.4479 19.8414L20.4479 19.8415C19.6045 24.6212 22.7962 29.1786 27.5751 30.0213C32.3549 30.864 36.9131 27.6729 37.7557 22.8932C38.5984 18.1135 35.4066 13.556 30.6277 12.7133ZM30.7498 12.0209L30.6277 12.7133L30.7498 12.0209ZM19.063 19.5972C20.0405 14.0526 25.3273 10.3509 30.8719 11.3284L30.8719 11.3284C36.4156 12.3059 40.1181 17.5927 39.1406 23.1374C38.1631 28.6821 32.8754 32.3837 27.331 31.4062L27.3309 31.4062C21.7872 30.4287 18.0847 25.142 19.063 19.5972Z" fill="#00314D"/>
<path fill-rule="evenodd" clip-rule="evenodd" d="M27.6303 15.7228C28.0054 15.6223 28.391 15.8449 28.4915 16.22L28.8594 17.593C28.9599 17.9681 28.7373 18.3536 28.3622 18.4541C27.9871 18.5546 27.6015 18.332 27.501 17.9569L27.1332 16.584C27.0326 16.2089 27.2552 15.8233 27.6303 15.7228Z" fill="#00314D"/>
<path fill-rule="evenodd" clip-rule="evenodd" d="M29.9311 24.3043C30.3062 24.2038 30.6918 24.4264 30.7923 24.8015L31.1602 26.1745C31.2607 26.5496 31.0381 26.9351 30.663 27.0357C30.2879 27.1362 29.9023 26.9136 29.8018 26.5385L29.4339 25.1655C29.3334 24.7904 29.556 24.4049 29.9311 24.3043Z" fill="#00314D"/>
<path fill-rule="evenodd" clip-rule="evenodd" d="M27.1186 19.1295C26.896 19.3771 26.8293 19.6288 26.9057 19.9141C26.9929 20.2393 27.2591 20.4477 27.7628 20.5693C28.1928 20.6731 28.6376 20.6739 28.9775 20.6746C29.0407 20.6747 29.1002 20.6748 29.1554 20.6756L29.156 20.6756C29.1782 20.6759 29.2031 20.6762 29.2307 20.6764C29.5526 20.6797 30.2252 20.6866 30.8765 20.854C31.5682 21.0317 32.4689 21.4546 32.7438 22.4804C32.96 23.2871 32.7139 24.018 32.2185 24.569C31.7423 25.0985 31.0448 25.4609 30.2934 25.6622C29.0078 26.0067 27.6387 25.6363 26.9048 24.6615C26.6712 24.3513 26.7333 23.9105 27.0435 23.6769C27.3538 23.4433 27.7946 23.5054 28.0282 23.8157C28.3522 24.246 29.0855 24.5301 29.9295 24.3039C30.5056 24.1495 30.931 23.8976 31.1728 23.6288C31.3952 23.3813 31.4619 23.1297 31.3855 22.8443C31.311 22.5665 31.0554 22.3519 30.5265 22.2159C30.0487 22.0932 29.537 22.0868 29.2065 22.0826C29.1817 22.0823 29.158 22.082 29.1353 22.0817L29.1456 21.3786L29.1359 22.0817C29.1018 22.0812 29.0589 22.0813 29.0085 22.0814C28.6829 22.0822 28.0436 22.0838 27.4328 21.9363C26.7211 21.7644 25.8308 21.3358 25.5474 20.278C25.3312 19.4713 25.5775 18.7403 26.0729 18.1893C26.5491 17.6596 27.2466 17.2972 27.9981 17.0958C29.2947 16.7484 30.6836 17.1283 31.4101 18.1269C31.6386 18.4409 31.5692 18.8807 31.2552 19.1091C30.9412 19.3376 30.5014 19.2682 30.273 18.9542C29.9562 18.5188 29.2161 18.2253 28.362 18.4541C27.7859 18.6085 27.3604 18.8605 27.1186 19.1295Z" fill="#00314D"/>
<path fill-rule="evenodd" clip-rule="evenodd" d="M55.9776 37.2754C54.7642 44.1584 48.2003 48.7535 41.3174 47.54C34.4356 46.3266 29.8395 39.7637 31.054 32.8808C32.2674 25.9979 38.8302 21.4028 45.7131 22.6162C52.5949 23.8296 57.191 30.3925 55.9776 37.2754Z" fill="white"/>
<path fill-rule="evenodd" clip-rule="evenodd" d="M45.5911 23.3088C39.0907 22.1628 32.8926 26.5025 31.7466 33.003L31.7466 33.0031C30.5996 39.5035 34.9402 45.7017 41.4396 46.8477C47.9402 47.9937 54.1393 43.6539 55.2853 37.1535C56.4313 30.653 52.0905 24.4548 45.5911 23.3088ZM45.5911 23.3088L45.7132 22.6163L45.5911 23.3088ZM30.3617 32.7588C31.6425 25.4934 38.57 20.643 45.8353 21.9239L45.8353 21.9239C53.0995 23.2047 57.951 30.1323 56.6702 37.3976C55.3893 44.6631 48.4607 49.5134 41.1954 48.2326C33.9313 46.9517 29.0797 40.0243 30.3617 32.7588Z" fill="#00314D"/>
<path fill-rule="evenodd" clip-rule="evenodd" d="M43.5762 27.5205C43.9645 27.5205 44.2793 27.8353 44.2793 28.2236V30.1188C44.2793 30.5072 43.9645 30.822 43.5762 30.822C43.1878 30.822 42.873 30.5072 42.873 30.1188V28.2236C42.873 27.8353 43.1878 27.5205 43.5762 27.5205Z" fill="#00314D"/>
<path fill-rule="evenodd" clip-rule="evenodd" d="M43.5762 39.366C43.9645 39.366 44.2793 39.6808 44.2793 40.0691V41.9643C44.2793 42.3526 43.9645 42.6674 43.5762 42.6674C43.1878 42.6674 42.873 42.3526 42.873 41.9643V40.0691C42.873 39.6808 43.1878 39.366 43.5762 39.366Z" fill="#00314D"/>
<path fill-rule="evenodd" clip-rule="evenodd" d="M41.6144 31.3006C41.1853 31.5797 40.9629 31.9503 40.9629 32.4341C40.9629 33.0094 41.3248 33.4321 41.9629 33.7796C42.5075 34.0762 43.1109 34.2388 43.5476 34.3564C43.627 34.3778 43.7009 34.3977 43.768 34.4167L43.7686 34.4168C43.7974 34.425 43.8295 34.434 43.8647 34.4438C44.2794 34.5596 45.1169 34.7935 45.8718 35.219C46.6768 35.6729 47.5961 36.467 47.5961 37.7539C47.5961 38.7775 47.0765 39.5645 46.3054 40.0661C45.5584 40.5519 44.5836 40.7719 43.5766 40.7719C41.8782 40.7719 40.3414 39.8637 39.7751 38.4603C39.6297 38.1002 39.8038 37.6905 40.1639 37.5451C40.524 37.3998 40.9338 37.5739 41.0791 37.934C41.3904 38.7055 42.3354 39.3656 43.5766 39.3656C44.4021 39.3656 45.0856 39.1819 45.5386 38.8872C45.9676 38.6082 46.1899 38.2378 46.1899 37.7539C46.1899 37.2413 45.8398 36.8154 45.1811 36.444C44.5825 36.1065 43.9002 35.9147 43.4777 35.7959C43.4451 35.7867 43.414 35.778 43.3847 35.7697L43.5766 35.0933L43.3853 35.7698C43.3384 35.7566 43.2805 35.7412 43.2134 35.7233C42.79 35.6107 41.9983 35.4001 41.2903 35.0145C40.4643 34.5647 39.5566 33.7678 39.5566 32.4341C39.5566 31.4104 40.0764 30.6234 40.8476 30.1218C41.5947 29.6358 42.5696 29.4158 43.5766 29.4158C45.29 29.4158 46.8471 30.3425 47.3964 31.771C47.5358 32.1334 47.355 32.5402 46.9926 32.6796C46.6301 32.819 46.2233 32.6382 46.0839 32.2757C45.7845 31.4973 44.8319 30.822 43.5766 30.822C42.7511 30.822 42.0676 31.0058 41.6144 31.3006Z" fill="#00314D"/>
<path d="M63.9062 13.6328C63.9062 17.7102 60.6009 21.0156 56.5234 21.0156C52.446 21.0156 49.1406 17.7102 49.1406 13.6328C49.1406 9.5554 52.446 6.25 56.5234 6.25C60.6009 6.25 63.9062 9.5554 63.9062 13.6328Z" fill="white"/>
<path fill-rule="evenodd" clip-rule="evenodd" d="M56.5234 6.95312C52.8343 6.95312 49.8438 9.94372 49.8438 13.6328C49.8438 17.3219 52.8343 20.3125 56.5234 20.3125C60.2125 20.3125 63.2031 17.3219 63.2031 13.6328C63.2031 9.94372 60.2125 6.95312 56.5234 6.95312ZM48.4375 13.6328C48.4375 9.16707 52.0577 5.54688 56.5234 5.54688C60.9892 5.54688 64.6094 9.16707 64.6094 13.6328C64.6094 18.0986 60.9892 21.7188 56.5234 21.7188C52.0577 21.7188 48.4375 18.0986 48.4375 13.6328Z" fill="#00314D"/>
<path fill-rule="evenodd" clip-rule="evenodd" d="M57.7788 9.09165C58.1539 9.19216 58.3765 9.57771 58.276 9.9528L57.9898 11.0207C57.8893 11.3958 57.5038 11.6184 57.1287 11.5179C56.7536 11.4173 56.531 11.0318 56.6315 10.6567L56.9176 9.58883C57.0181 9.21374 57.4037 8.99114 57.7788 9.09165Z" fill="#00314D"/>
<path fill-rule="evenodd" clip-rule="evenodd" d="M55.9897 15.7662C56.3648 15.8667 56.5874 16.2523 56.4869 16.6274L56.2008 17.6952C56.1003 18.0703 55.7147 18.2929 55.3396 18.1924C54.9645 18.0919 54.7419 17.7064 54.8424 17.3313L55.1286 16.2634C55.2291 15.8883 55.6146 15.6657 55.9897 15.7662Z" fill="#00314D"/>
<path fill-rule="evenodd" clip-rule="evenodd" d="M56.1181 11.4869C55.915 11.553 55.8161 11.6605 55.7721 11.8245C55.7262 11.996 55.7766 12.1841 56.0514 12.4455C56.286 12.6687 56.5671 12.8319 56.7959 12.9647C56.8395 12.99 56.8812 13.0142 56.9203 13.0376L56.9209 13.0379C56.9354 13.0466 56.9521 13.0564 56.9706 13.0673C57.1855 13.1943 57.6516 13.4695 58.0396 13.8497C58.4497 14.2515 58.9425 14.9425 58.7065 15.8234C58.5228 16.5088 58.0289 16.9415 57.4379 17.1341C56.8742 17.3177 56.2311 17.286 55.6272 17.1242C54.5782 16.8431 53.7437 16.0175 53.6192 15.0004C53.572 14.6149 53.8463 14.2642 54.2317 14.217C54.6172 14.1699 54.9679 14.4441 55.0151 14.8295C55.0568 15.1703 55.3838 15.6031 55.9912 15.7659C56.4198 15.8807 56.772 15.872 57.0024 15.797C57.2053 15.7309 57.3042 15.6235 57.3482 15.4594C57.3838 15.3264 57.3456 15.1384 57.0555 14.8542C56.7955 14.5994 56.4684 14.405 56.2463 14.2729C56.2304 14.2634 56.2151 14.2543 56.2004 14.2456C56.1794 14.2331 56.152 14.2174 56.1194 14.1986C55.9023 14.0742 55.4516 13.8158 55.0821 13.4643C54.6523 13.0554 54.1715 12.3646 54.4138 11.4605C54.5974 10.7751 55.0915 10.3423 55.6826 10.1498C56.2463 9.96614 56.8894 9.99773 57.4934 10.1596C58.551 10.443 59.3965 11.2834 59.5056 12.3155C59.5465 12.7017 59.2665 13.0478 58.8803 13.0887C58.4942 13.1295 58.148 12.8495 58.1072 12.4634C58.0713 12.1239 57.7445 11.6827 57.1294 11.5179C56.7008 11.4031 56.3485 11.4118 56.1181 11.4869Z" fill="#00314D"/>
<path fill-rule="evenodd" clip-rule="evenodd" d="M63.814 49.1435C64.0067 49.4806 63.8896 49.91 63.5525 50.1027C63.5525 50.1027 63.5526 50.1027 63.5525 50.1027L63.5488 50.1048L63.5347 50.113C63.5219 50.1204 63.5021 50.1319 63.4758 50.1474C63.4232 50.1783 63.3444 50.2251 63.2417 50.2873C63.0364 50.4117 62.7361 50.5975 62.3607 50.8406C61.6096 51.3269 60.5591 52.0416 59.3676 52.9515C56.9784 54.776 54.0494 57.3646 51.8204 60.4509C49.6149 63.5047 48.5899 66.8244 48.1188 69.3945C47.8836 70.6773 47.7876 71.7665 47.7504 72.5318C47.7318 72.9143 47.7279 73.2152 47.7286 73.4183C47.7289 73.5198 47.7304 73.5968 47.7317 73.6472C47.7324 73.6724 47.733 73.691 47.7334 73.7027L47.7339 73.715L47.734 73.7167C47.7522 74.1044 47.4528 74.434 47.0651 74.4525C46.6772 74.4709 46.3478 74.1715 46.3293 73.7836L47.0316 73.7501C46.3293 73.7836 46.3293 73.7838 46.3293 73.7836L46.3293 73.7823L46.3292 73.7804L46.3289 73.7745L46.3281 73.7548C46.3275 73.7382 46.3267 73.7145 46.3259 73.6841C46.3243 73.6233 46.3227 73.5355 46.3223 73.4228C46.3216 73.1974 46.326 72.8721 46.3458 72.4635C46.3855 71.6468 46.4873 70.4948 46.7356 69.1409C47.2312 66.4376 48.3156 62.9018 50.6804 59.6275C53.0218 56.3856 56.0693 53.7008 58.5141 51.8339C59.7395 50.8981 60.8205 50.1626 61.5964 49.6602C61.9845 49.4089 62.2967 49.2156 62.513 49.0846C62.6212 49.019 62.7054 48.969 62.7632 48.9351C62.7921 48.9181 62.8143 48.9051 62.8297 48.8962L62.8475 48.886L62.8524 48.8831L62.8539 48.8823C62.8541 48.8822 62.8547 48.8818 63.2035 49.4923L62.8547 48.8818C63.1918 48.6892 63.6214 48.8063 63.814 49.1435Z" fill="#00314D"/>
<path fill-rule="evenodd" clip-rule="evenodd" d="M18.9297 46.1481C19.0291 45.7727 19.4139 45.549 19.7893 45.6483L19.6094 46.3281C19.7893 45.6483 19.7891 45.6483 19.7893 45.6483L19.7925 45.6492L19.8001 45.6512L19.828 45.6587C19.8523 45.6653 19.8878 45.675 19.934 45.6879C20.0264 45.7136 20.1618 45.7519 20.3363 45.8029C20.6852 45.905 21.1905 46.0582 21.8213 46.2638C23.0826 46.675 24.8476 47.2966 26.8676 48.1402C30.8988 49.8235 35.9861 52.4069 40.1098 55.9928C44.2927 59.6301 46.1967 64.0822 47.0552 67.607C47.4847 69.3699 47.6544 70.9074 47.7168 72.0072C47.748 72.5575 47.7524 72.9993 47.7488 73.3064C47.747 73.4599 47.7432 73.5799 47.7397 73.6629C47.7384 73.6955 47.7371 73.7223 47.736 73.7434C47.7357 73.7492 47.7354 73.7546 47.7351 73.7595L47.7335 73.7863L47.733 73.7941L47.7328 73.7967L47.7328 73.7976C47.7328 73.798 47.7327 73.7983 47.0313 73.7499L47.7328 73.7976C47.7061 74.185 47.3703 74.4781 46.9829 74.4514C46.5957 74.4247 46.3034 74.0893 46.3298 73.7021C46.3298 73.7021 46.3298 73.7021 46.3298 73.7021L46.33 73.6988L46.331 73.6815C46.3319 73.6652 46.3332 73.6394 46.3347 73.6045C46.3376 73.5348 46.341 73.4288 46.3426 73.2899C46.3459 73.0119 46.342 72.6023 46.3128 72.0869C46.2543 71.0553 46.0945 69.6045 45.6889 67.9398C44.8776 64.6091 43.0901 60.4479 39.1871 57.054C35.2249 53.6086 30.2927 51.0943 26.3258 49.4378C24.3468 48.6114 22.6181 48.0026 21.3855 47.6008C20.7694 47.4 20.2777 47.251 19.9414 47.1526C19.7732 47.1034 19.6439 47.0668 19.5573 47.0427C19.514 47.0307 19.4813 47.0218 19.4599 47.016L19.4361 47.0095L19.4306 47.0081L19.4295 47.0078" fill="#00314D"/>
</g>
<defs>
<clipPath id="clip0_950_2487">
<rect width="80" height="80" fill="white"/>
</clipPath>
</defs>
</svg>
