<svg xmlns="http://www.w3.org/2000/svg" viewBox="0 0 64 64" focusable="false" width="16" fill="#fff" height="16"><path d="M34 44.465V49a2 2 0 11-4 0v-4.535A3.997 3.997 0 0128 41c0-2.21 1.79-4 4-4s4 1.79 4 4a3.997 3.997 0 01-2 3.465zM14 26v-7c0-9.941 8.059-18 18-18s18 8.059 18 18v7h.538c2.985 0 5.482 2.29 5.482 5.192v17.65c0 7.343-6.678 13.197-14.77 13.197H21.77C13.676 62.04 7 56.185 7 48.843V31.192C7 28.29 9.496 26 12.482 26H14zm36.538 4H12.482c-.85 0-1.482.58-1.482 1.192v17.65c0 5.009 4.778 9.197 10.77 9.197h19.48c5.992 0 10.77-4.188 10.77-9.196V31.192c0-.612-.633-1.192-1.482-1.192zM46 19c0-7.732-6.268-14-14-14s-14 6.268-14 14v7h28v-7z"></path><svg viewBox="0 0 64 64" focusable="false" width="16" fill="currentColor" height="16" class="dsc-icon"><path d="M32 37.172l17.845-18.1a3.57 3.57 0 015.099 0 3.694 3.694 0 010 5.17L34.549 44.93a3.57 3.57 0 01-5.098 0L9.056 24.243a3.694 3.694 0 010-5.172 3.57 3.57 0 015.099 0L32 37.171z"></path></svg></svg>