<svg xmlns="http://www.w3.org/2000/svg" viewBox="0 0 64 64" focusable="false" width="16" fill="#fff" height="16"><path d="M33.803 39.832c-.018.795-.033 2.032-.042 3.633a2.193 2.193 0 01-4.387-.023c.017-3.042.05-4.64.12-5.17.08-.412.08-.412.231-.753.465-.927 5.762-3.258 7.985-4.605 5.959-3.612 8.175-7.657 7.877-11.52-.288-3.744-1.58-6.515-3.846-8.646-3.065-2.882-5.69-4.122-9.856-4.368-6.568 0-11.01 2.988-13.674 9.225a2.194 2.194 0 01-4.034-1.72C17.525 8.045 23.545 3.995 32.012 4c5.382.313 8.956 2.003 12.735 5.555 3.074 2.891 4.843 6.686 5.214 11.503.428 5.557-2.64 11.157-9.977 15.604a45.45 45.45 0 01-5.475 2.864l-.706.306zM31.668 60a2.923 2.923 0 112.924-2.922A2.923 2.923 0 0131.668 60z"></path></svg>