<svg width="32" height="32" viewBox="0 0 32 32" fill="none" xmlns="http://www.w3.org/2000/svg">
<path fill-rule="evenodd" clip-rule="evenodd" d="M23.9459 7.5L17.6173 14.9101L24.5 25H19.4379L14.8028 18.2054L8.99977 25H7.5L14.137 17.2294L7.5 7.5H12.5621L16.9511 13.934L22.4463 7.5H23.9459ZM20.1434 23.9145H22.447L11.8437 8.63722H9.54016L20.1434 23.9145Z" fill="#565656"/>
<path fill-rule="evenodd" clip-rule="evenodd" d="M32 16C32 7.17737 24.8218 0 16 0C7.17737 0 0 7.17737 0 16C0 24.8226 7.17737 32 16 32C24.8218 32 32 24.8226 32 16ZM1 16C1 7.71652 7.71564 1 16 1C24.2844 1 31 7.71652 31 16C31 24.2852 24.2844 31 16 31C7.71564 31 1 24.2852 1 16Z" fill="#565656"/>
</svg>
