<svg xmlns="http://www.w3.org/2000/svg" viewBox="0 0 64 64" focusable="false" width="16" fill="#fff" height="16"><path d="M5.212 34.067c.935 12.301 10.156 22.287 22.093 24.39a46.39 46.39 0 01-8.854-24.39H5.211zm0-4.134h13.235a46.336 46.336 0 018.858-24.39C15.367 7.645 6.147 17.631 5.212 29.932zm53.576 0c-.935-12.301-10.156-22.287-22.093-24.39a46.39 46.39 0 018.854 24.39h13.24zm0 4.134H45.553a46.336 46.336 0 01-8.858 24.39c11.938-2.103 21.158-12.089 22.093-24.39zm-36.203-4.134H41.41A42.202 42.202 0 0032 6.227a42.172 42.172 0 00-9.415 23.706zm18.83 4.134H22.59A42.202 42.202 0 0032 57.773a42.172 42.172 0 009.415-23.706zM32 63C14.88 63 1 49.12 1 32 1 14.88 14.88 1 32 1c17.12 0 31 13.88 31 31 0 17.12-13.88 31-31 31z"></path></svg>